<svg width="16" height="17" viewBox="0 0 16 17" fill="none" xmlns="http://www.w3.org/2000/svg">
<path d="M15.805 5.32538C15.7689 4.50533 15.6363 3.94155 15.4463 3.45303C15.2503 2.93448 14.9488 2.47022 14.5538 2.08428C14.1679 1.69233 13.7005 1.38777 13.188 1.19486C12.6967 1.0049 12.1358 0.872285 11.3158 0.836128C10.4896 0.79691 10.2273 0.787842 8.13191 0.787842C6.0365 0.787842 5.77422 0.79691 4.95111 0.833066C4.13106 0.869223 3.56728 1.00195 3.07888 1.1918C2.56021 1.38777 2.09595 1.68927 1.71001 2.08428C1.31807 2.47022 1.01362 2.93754 0.820596 3.45009C0.630629 3.94155 0.498017 4.50227 0.461861 5.32232C0.422643 6.14849 0.413574 6.41077 0.413574 8.50618C0.413574 10.6016 0.422643 10.8639 0.458799 11.687C0.494955 12.507 0.627685 13.0708 0.817651 13.5593C1.01362 14.0779 1.31807 14.5421 1.71001 14.9281C2.09595 15.32 2.56327 15.6246 3.07582 15.8175C3.56728 16.0075 4.128 16.1401 4.94817 16.1762C5.77116 16.2125 6.03356 16.2214 8.12896 16.2214C10.2244 16.2214 10.4867 16.2125 11.3098 16.1762C12.1298 16.1401 12.6936 16.0075 13.182 15.8175C14.2192 15.4165 15.0393 14.5964 15.4403 13.5593C15.6301 13.0679 15.7629 12.507 15.799 11.687C15.8352 10.8639 15.8442 10.6016 15.8442 8.50618C15.8442 6.41077 15.8412 6.14849 15.805 5.32538ZM14.4152 11.6267C14.382 12.3804 14.2554 12.7874 14.1498 13.0588C13.8905 13.7312 13.3569 14.2648 12.6845 14.5241C12.4132 14.6296 12.0032 14.7562 11.2524 14.7893C10.4384 14.8256 10.1942 14.8346 8.13497 14.8346C6.07572 14.8346 5.82852 14.8256 5.01742 14.7893C4.26367 14.7562 3.85665 14.6296 3.5853 14.5241C3.25071 14.4005 2.94615 14.2045 2.69895 13.9482C2.44268 13.6979 2.2467 13.3964 2.12304 13.0618C2.01752 12.7905 1.89091 12.3804 1.85782 11.6297C1.82154 10.8157 1.81259 10.5714 1.81259 8.51218C1.81259 6.45293 1.82154 6.20573 1.85782 5.39475C1.89091 4.641 2.01752 4.23398 2.12304 3.96263C2.2467 3.62792 2.44268 3.32348 2.70201 3.07616C2.95216 2.81989 3.25366 2.62391 3.58837 2.50037C3.85971 2.39485 4.2698 2.26824 5.02048 2.23503C5.83452 2.19887 6.07878 2.1898 8.13792 2.1898C10.2002 2.1898 10.4444 2.19887 11.2555 2.23503C12.0092 2.26824 12.4162 2.39485 12.6876 2.50037C13.0222 2.62391 13.3267 2.81989 13.5739 3.07616C13.8302 3.32643 14.0262 3.62792 14.1498 3.96263C14.2554 4.23398 14.382 4.64395 14.4152 5.39475C14.4513 6.20879 14.4604 6.45293 14.4604 8.51218C14.4604 10.5714 14.4513 10.8126 14.4152 11.6267Z" fill="white"/>
<path d="M8.13101 4.54175C5.94221 4.54175 4.16632 6.31752 4.16632 8.50644C4.16632 10.6954 5.94221 12.4711 8.13101 12.4711C10.3199 12.4711 12.0957 10.6954 12.0957 8.50644C12.0957 6.31752 10.3199 4.54175 8.13101 4.54175ZM8.13101 11.0782C6.71103 11.0782 5.55922 9.92654 5.55922 8.50644C5.55922 7.08634 6.71103 5.93464 8.13101 5.93464C9.55111 5.93464 10.7028 7.08634 10.7028 8.50644C10.7028 9.92654 9.55111 11.0782 8.13101 11.0782Z" fill="white"/>
<path d="M13.178 4.38468C13.178 4.89574 12.7637 5.31012 12.2525 5.31012C11.7414 5.31012 11.327 4.89574 11.327 4.38468C11.327 3.8735 11.7414 3.45923 12.2525 3.45923C12.7637 3.45923 13.178 3.8735 13.178 4.38468Z" fill="white"/>
</svg>
