<svg width="24" height="24" viewBox="0 0 24 24" fill="none" xmlns="http://www.w3.org/2000/svg">
<path d="M23.939 7.05743C23.8828 5.78197 23.6765 4.90511 23.381 4.14529C23.0762 3.33876 22.6073 2.61668 21.9929 2.01641C21.3927 1.4068 20.6658 0.933102 19.8686 0.633059C19.1044 0.337595 18.2321 0.131338 16.9567 0.0751024C15.6717 0.0141046 15.2638 0 12.0047 0C8.74559 0 8.33766 0.0141046 7.05743 0.0703399C5.78197 0.126575 4.90511 0.333015 4.14547 0.628296C3.33876 0.933102 2.61668 1.40203 2.01641 2.01641C1.4068 2.61668 0.933285 3.34352 0.633059 4.14071C0.337595 4.90511 0.131338 5.77721 0.0751024 7.05267C0.0141046 8.33766 0 8.74559 0 12.0047C0 15.2638 0.0141046 15.6717 0.0703399 16.9519C0.126575 18.2274 0.333015 19.1042 0.628479 19.8641C0.933285 20.6706 1.4068 21.3927 2.01641 21.9929C2.61668 22.6025 3.34353 23.0762 4.14071 23.3763C4.90511 23.6717 5.77721 23.878 7.05285 23.9342C8.33289 23.9907 8.74101 24.0046 12.0001 24.0046C15.2592 24.0046 15.6671 23.9907 16.9473 23.9342C18.2228 23.878 19.0997 23.6717 19.8593 23.3763C21.4725 22.7526 22.748 21.4771 23.3717 19.8641C23.667 19.0997 23.8734 18.2274 23.9297 16.9519C23.9859 15.6717 24 15.2638 24 12.0047C24 8.74559 23.9952 8.33766 23.939 7.05743ZM21.7773 16.8581C21.7257 18.0305 21.5288 18.6635 21.3646 19.0856C20.9613 20.1313 20.1313 20.9613 19.0856 21.3646C18.6635 21.5288 18.0259 21.7257 16.8581 21.7771C15.592 21.8336 15.2123 21.8475 12.0094 21.8475C8.80659 21.8475 8.4221 21.8336 7.16056 21.7771C5.98823 21.7257 5.35517 21.5288 4.93313 21.3646C4.41273 21.1723 3.93903 20.8675 3.55454 20.4689C3.15595 20.0796 2.85115 19.6107 2.65881 19.0903C2.49468 18.6683 2.29777 18.0305 2.2463 16.8629C2.18988 15.5968 2.17596 15.2169 2.17596 12.014C2.17596 8.81117 2.18988 8.42668 2.2463 7.16532C2.29777 5.99299 2.49468 5.35993 2.65881 4.9379C2.85115 4.41731 3.15595 3.94379 3.55931 3.55912C3.94837 3.16053 4.41731 2.85573 4.9379 2.66357C5.35993 2.49945 5.99776 2.30253 7.16532 2.25088C8.43144 2.19464 8.81135 2.18054 12.014 2.18054C15.2216 2.18054 15.6013 2.19464 16.8629 2.25088C18.0352 2.30253 18.6683 2.49945 19.0903 2.66357C19.6107 2.85573 20.0844 3.16053 20.4689 3.55912C20.8675 3.94837 21.1723 4.41731 21.3646 4.9379C21.5288 5.35993 21.7257 5.99757 21.7773 7.16532C21.8336 8.43144 21.8477 8.81117 21.8477 12.014C21.8477 15.2169 21.8336 15.592 21.7773 16.8581Z" fill="#FF0000"/>
<path d="M12.0048 5.83826C8.60044 5.83826 5.83832 8.6002 5.83832 12.0047C5.83832 15.4092 8.60044 18.1712 12.0048 18.1712C15.4093 18.1712 18.1712 15.4092 18.1712 12.0047C18.1712 8.6002 15.4093 5.83826 12.0048 5.83826ZM12.0048 16.0047C9.79622 16.0047 8.00475 14.2135 8.00475 12.0047C8.00475 9.79597 9.79622 8.00469 12.0048 8.00469C14.2135 8.00469 16.0048 9.79597 16.0048 12.0047C16.0048 14.2135 14.2135 16.0047 12.0048 16.0047Z" fill="#FF0000"/>
<path d="M19.8547 5.59449C19.8547 6.38948 19.2101 7.03408 18.415 7.03408C17.62 7.03408 16.9754 6.38948 16.9754 5.59449C16.9754 4.79932 17.62 4.15491 18.415 4.15491C19.2101 4.15491 19.8547 4.79932 19.8547 5.59449Z" fill="#FF0000"/>
</svg>
