<svg width="46" height="46" viewBox="0 0 46 46" fill="none" xmlns="http://www.w3.org/2000/svg">
<path d="M32.97 16.9288C31.6805 16.9288 30.4907 16.5016 29.5353 15.7809C28.4396 14.9548 27.6523 13.743 27.3742 12.3462C27.3054 12.0011 27.2684 11.645 27.2648 11.28H23.5813V21.3454L23.5768 26.8586C23.5768 28.3326 22.6171 29.5824 21.2864 30.0219C20.9003 30.1494 20.4833 30.2099 20.049 30.1861C19.4948 30.1556 18.9753 29.9883 18.5239 29.7183C17.5631 29.1436 16.9118 28.1013 16.8941 26.9088C16.8663 25.0452 18.373 23.5258 20.2353 23.5258C20.6028 23.5258 20.9559 23.5858 21.2864 23.6948V20.9438V19.9547C20.9379 19.9032 20.5831 19.8761 20.2242 19.8761C18.1858 19.8761 16.2794 20.7235 14.9166 22.25C13.8866 23.4036 13.2688 24.8752 13.1735 26.4185C13.0486 28.4459 13.7904 30.3731 15.2291 31.795C15.4405 32.0038 15.6624 32.1975 15.8946 32.3763C17.128 33.3255 18.636 33.84 20.2242 33.84C20.5831 33.84 20.9379 33.8135 21.2864 33.762C22.7701 33.5422 24.1391 32.863 25.2194 31.795C26.5468 30.4831 27.2802 28.7411 27.2881 26.8872L27.2693 18.6543C27.9025 19.1428 28.5949 19.547 29.3381 19.8607C30.4939 20.3484 31.7193 20.5956 32.9806 20.5951V17.9204V16.9279L32.97 16.9288Z" fill="#FF0000"/>
</svg>
