<svg width="14" height="16" viewBox="0 0 14 16" fill="none" xmlns="http://www.w3.org/2000/svg">
<path d="M13.411 4.59959C12.582 4.59959 11.817 4.32493 11.2027 3.86158C10.4982 3.33044 9.992 2.5513 9.81323 1.65328C9.76899 1.4314 9.74518 1.20243 9.74288 0.967773H7.3746V7.43922L7.3717 10.984C7.3717 11.9316 6.75464 12.7352 5.89909 13.0178C5.65082 13.0997 5.38272 13.1387 5.1035 13.1233C4.74717 13.1037 4.41319 12.9961 4.12294 12.8226C3.50523 12.4531 3.08644 11.7829 3.07509 11.0162C3.05722 9.81801 4.0259 8.84111 5.22329 8.84111C5.4596 8.84111 5.6866 8.87967 5.89909 8.94978V7.18104V6.54512C5.67499 6.512 5.4469 6.4946 5.21616 6.4946C3.90559 6.4946 2.67985 7.03937 1.80368 8.02087C1.14144 8.76255 0.744208 9.70874 0.682913 10.701C0.602617 12.0045 1.07959 13.2436 2.00456 14.1577C2.14047 14.292 2.28319 14.4165 2.43243 14.5315C3.22547 15.1418 4.195 15.4726 5.21616 15.4726C5.4469 15.4726 5.67499 15.4556 5.89909 15.4224C6.85303 15.2811 7.73324 14.8444 8.42778 14.1577C9.28127 13.3143 9.7528 12.1943 9.75787 11.0023L9.74579 5.70899C10.1529 6.02307 10.5981 6.28295 11.0759 6.48468C11.819 6.79823 12.6069 6.95718 13.4178 6.95682V5.23714V4.59902L13.411 4.59959Z" fill="white"/>
</svg>
