<svg width="31" height="22" viewBox="0 0 31 22" fill="none" xmlns="http://www.w3.org/2000/svg">
<path d="M30.3613 3.39631C30.0041 2.06825 28.957 1.02135 27.6291 0.663746C25.2033 0 15.4997 0 15.4997 0C15.4997 0 5.79643 0 3.37058 0.638582C2.06825 0.995809 0.99562 2.06844 0.638392 3.39631C0 5.82197 0 10.8525 0 10.8525C0 10.8525 0 15.9083 0.638392 18.3087C0.995998 19.6365 2.0427 20.6834 3.37076 21.041C5.82197 21.705 15.5 21.705 15.5 21.705C15.5 21.705 25.2033 21.705 27.6291 21.0664C28.9572 20.709 30.0041 19.6621 30.3617 18.3342C30.9999 15.9083 30.9999 10.878 30.9999 10.878C30.9999 10.878 31.0254 5.82197 30.3613 3.39631ZM12.4102 15.4998V6.20512L20.4793 10.8525L12.4102 15.4998Z" fill="#FF0000"/>
</svg>
