<svg width="21" height="15" viewBox="0 0 21 15" fill="none" xmlns="http://www.w3.org/2000/svg">
<path d="M20.1704 2.6143C19.9407 1.76043 19.2675 1.08734 18.4138 0.857416C16.8541 0.430664 10.6152 0.430664 10.6152 0.430664C10.6152 0.430664 4.37656 0.430664 2.81687 0.841236C1.97955 1.07091 1.28991 1.76055 1.06023 2.6143C0.64978 4.17387 0.64978 7.40821 0.64978 7.40821C0.64978 7.40821 0.64978 10.6588 1.06023 12.2021C1.29015 13.0559 1.96313 13.729 2.81699 13.9589C4.39298 14.3857 10.6154 14.3857 10.6154 14.3857C10.6154 14.3857 16.8541 14.3857 18.4138 13.9752C19.2676 13.7454 19.9407 13.0723 20.1706 12.2185C20.581 10.6588 20.581 7.42463 20.581 7.42463C20.581 7.42463 20.5974 4.17387 20.1704 2.6143ZM8.62887 10.3962V4.42021L13.8168 7.40821L8.62887 10.3962Z" fill="white"/>
</svg>
