<svg width="182" height="47" viewBox="0 0 182 47" fill="none" xmlns="http://www.w3.org/2000/svg">
<g filter="url(#filter0_d_4_615)">
<path d="M174.383 30.0082V8.09521H177.978V30.0082H174.383Z" fill="white"/>
<path d="M152.583 21.9997V8.09521H156.177V22.0628C156.177 25.468 158.101 27.076 161.128 27.076C164.186 27.076 166.109 25.468 166.109 22.0628V8.09521H169.704V21.9997C169.704 27.5804 165.668 30.2289 161.096 30.2289C156.493 30.2289 152.583 27.5804 152.583 21.9997Z" fill="white"/>
<path d="M144.108 20.8648V30.0083H140.514V12.6356H144.108V15.1579C145.117 13.4238 146.851 12.3518 149.311 12.3518V16.0723H148.396C145.748 16.0723 144.108 17.1758 144.108 20.8648Z" fill="white"/>
<path d="M128.369 15.3786C125.941 15.3786 123.987 17.0182 123.608 19.7612H133.225C133.162 17.0812 131.049 15.3786 128.369 15.3786ZM136.504 24.8375C135.526 27.8643 132.783 30.2921 128.527 30.2921C123.545 30.2921 119.856 26.7608 119.856 21.3062C119.856 15.8516 123.387 12.3518 128.527 12.3518C133.477 12.3518 136.977 15.7885 136.977 20.8963C136.977 21.4954 136.945 22.0629 136.851 22.662H123.577C123.829 25.5311 125.878 27.2653 128.527 27.2653C130.734 27.2653 131.963 26.1933 132.626 24.8375H136.504Z" fill="white"/>
<path d="M109.891 25.1844V15.5679H107.841V12.6357H109.891V8.31616H113.516V12.6357H117.741V15.5679H113.516V25.1844C113.516 26.4771 114.021 27.0132 115.534 27.0132H117.741V30.0085H114.904C111.814 30.0085 109.891 28.7157 109.891 25.1844Z" fill="white"/>
<path d="M105.439 25.1528C105.439 28.085 102.885 30.2921 98.7865 30.2921C94.6246 30.2921 91.6924 27.8328 91.5347 24.6798H95.2552C95.3813 26.0987 96.7371 27.2653 98.7235 27.2653C100.804 27.2653 101.908 26.3824 101.908 25.1843C101.908 21.7791 91.8185 23.734 91.8185 17.365C91.8185 14.5904 94.4039 12.3518 98.5027 12.3518C102.444 12.3518 105.029 14.4643 105.219 17.9325H101.624C101.498 16.4191 100.331 15.3786 98.3766 15.3786C96.4533 15.3786 95.4444 16.1669 95.4444 17.3335C95.4444 20.8332 105.25 18.8784 105.439 25.1528Z" fill="white"/>
<path d="M69.9139 21.2431C69.9139 15.8831 73.5398 12.3518 78.1116 12.3518C81.0439 12.3518 83.0617 13.7391 84.1337 15.1579V12.6356H87.7596V30.0083H84.1337V27.4229C83.0302 28.9048 80.9493 30.2921 78.0486 30.2921C73.5398 30.2921 69.9139 26.6031 69.9139 21.2431ZM84.1337 21.3062C84.1337 17.5857 81.5799 15.4732 78.8683 15.4732C76.1883 15.4732 73.6029 17.4911 73.6029 21.2431C73.6029 24.9951 76.1883 27.1707 78.8683 27.1707C81.5799 27.1707 84.1337 25.0582 84.1337 21.3062Z" fill="white"/>
<path d="M54.8854 30.0082V8.09521H67.781V11.0275H58.4798V17.491H65.7316V20.4232H58.4798V30.0082H54.8854Z" fill="white"/>
<path fill-rule="evenodd" clip-rule="evenodd" d="M14.4951 0C8.69883 0 4 4.69883 4 10.4951V27.669C4 33.4653 8.69883 38.1641 14.4951 38.1641H31.669C37.4653 38.1641 42.1641 33.4652 42.1641 27.669V10.4951C42.1641 4.69883 37.4652 0 31.669 0H14.4951ZM29.5384 16.5063C29.6068 16.5455 29.6635 16.6017 29.7025 16.6693C29.7416 16.7369 29.7617 16.8135 29.7607 16.8912C29.7598 16.9689 29.7378 17.0449 29.6971 17.1116L22.6805 29.3716C22.6266 29.4549 22.546 29.5181 22.4513 29.5513C22.3566 29.5844 22.2533 29.5855 22.1579 29.5544C22.0625 29.5233 21.9805 29.4619 21.9248 29.3798C21.8691 29.2977 21.8431 29.1996 21.8507 29.1013L22.6302 21.7183H16.8511C16.7714 21.7183 16.6932 21.6974 16.6245 21.6579C16.5558 21.6183 16.4991 21.5615 16.4602 21.4933C16.4214 21.4251 16.4018 21.348 16.4034 21.2699C16.4051 21.1917 16.4279 21.1155 16.4697 21.0489L23.6042 8.78756C23.6594 8.70441 23.7415 8.64189 23.8373 8.61006C23.933 8.57823 24.037 8.57895 24.1323 8.6121C24.2276 8.64525 24.3088 8.7089 24.3627 8.7928C24.4167 8.87671 24.4403 8.97598 24.4297 9.07465L23.4461 16.4466H29.3129C29.3921 16.4466 29.4699 16.4672 29.5384 16.5063Z" fill="white"/>
</g>
<defs>
<filter id="filter0_d_4_615" x="0" y="0" width="181.978" height="46.1641" filterUnits="userSpaceOnUse" color-interpolation-filters="sRGB">
<feFlood flood-opacity="0" result="BackgroundImageFix"/>
<feColorMatrix in="SourceAlpha" type="matrix" values="0 0 0 0 0 0 0 0 0 0 0 0 0 0 0 0 0 0 127 0" result="hardAlpha"/>
<feOffset dy="4"/>
<feGaussianBlur stdDeviation="2"/>
<feComposite in2="hardAlpha" operator="out"/>
<feColorMatrix type="matrix" values="0 0 0 0 0 0 0 0 0 0 0 0 0 0 0 0 0 0 0.25 0"/>
<feBlend mode="normal" in2="BackgroundImageFix" result="effect1_dropShadow_4_615"/>
<feBlend mode="normal" in="SourceGraphic" in2="effect1_dropShadow_4_615" result="shape"/>
</filter>
</defs>
</svg>
