<svg width="174" height="39" viewBox="0 0 174 39" fill="none" xmlns="http://www.w3.org/2000/svg">
<path d="M170.383 30.0082V8.09521H173.978V30.0082H170.383Z" fill="#FF0000"/>
<path d="M148.583 21.9997V8.09521H152.177V22.0628C152.177 25.468 154.101 27.076 157.128 27.076C160.186 27.076 162.109 25.468 162.109 22.0628V8.09521H165.704V21.9997C165.704 27.5804 161.668 30.2289 157.096 30.2289C152.493 30.2289 148.583 27.5804 148.583 21.9997Z" fill="#FF0000"/>
<path d="M140.108 20.8648V30.0083H136.514V12.6356H140.108V15.1579C141.117 13.4238 142.851 12.3518 145.311 12.3518V16.0723H144.396C141.748 16.0723 140.108 17.1758 140.108 20.8648Z" fill="#FF0000"/>
<path d="M124.369 15.3786C121.941 15.3786 119.987 17.0182 119.608 19.7612H129.225C129.162 17.0812 127.049 15.3786 124.369 15.3786ZM132.504 24.8375C131.526 27.8643 128.783 30.2921 124.527 30.2921C119.545 30.2921 115.856 26.7608 115.856 21.3062C115.856 15.8516 119.387 12.3518 124.527 12.3518C129.477 12.3518 132.977 15.7885 132.977 20.8963C132.977 21.4954 132.945 22.0629 132.851 22.662H119.577C119.829 25.5311 121.878 27.2653 124.527 27.2653C126.734 27.2653 127.963 26.1933 128.626 24.8375H132.504Z" fill="#FF0000"/>
<path d="M105.891 25.1844V15.5679H103.841V12.6357H105.891V8.31616H109.516V12.6357H113.741V15.5679H109.516V25.1844C109.516 26.4771 110.021 27.0132 111.534 27.0132H113.741V30.0085H110.904C107.814 30.0085 105.891 28.7157 105.891 25.1844Z" fill="#FF0000"/>
<path d="M101.439 25.1528C101.439 28.085 98.8853 30.2921 94.7865 30.2921C90.6246 30.2921 87.6924 27.8328 87.5347 24.6798H91.2552C91.3813 26.0987 92.7371 27.2653 94.7235 27.2653C96.8044 27.2653 97.9079 26.3824 97.9079 25.1843C97.9079 21.7791 87.8185 23.734 87.8185 17.365C87.8185 14.5904 90.4039 12.3518 94.5027 12.3518C98.4439 12.3518 101.029 14.4643 101.219 17.9325H97.6242C97.4981 16.4191 96.3315 15.3786 94.3766 15.3786C92.4533 15.3786 91.4444 16.1669 91.4444 17.3335C91.4444 20.8332 101.25 18.8784 101.439 25.1528Z" fill="#FF0000"/>
<path d="M65.9139 21.2431C65.9139 15.8831 69.5398 12.3518 74.1116 12.3518C77.0439 12.3518 79.0617 13.7391 80.1337 15.1579V12.6356H83.7596V30.0083H80.1337V27.4229C79.0302 28.9048 76.9493 30.2921 74.0486 30.2921C69.5398 30.2921 65.9139 26.6031 65.9139 21.2431ZM80.1337 21.3062C80.1337 17.5857 77.5799 15.4732 74.8683 15.4732C72.1883 15.4732 69.6029 17.4911 69.6029 21.2431C69.6029 24.9951 72.1883 27.1707 74.8683 27.1707C77.5799 27.1707 80.1337 25.0582 80.1337 21.3062Z" fill="#FF0000"/>
<path d="M50.8854 30.0082V8.09521H63.781V11.0275H54.4798V17.491H61.7316V20.4232H54.4798V30.0082H50.8854Z" fill="#FF0000"/>
<path fill-rule="evenodd" clip-rule="evenodd" d="M10.4951 0C4.69883 0 0 4.69883 0 10.4951V27.669C0 33.4653 4.69883 38.1641 10.4951 38.1641H27.669C33.4653 38.1641 38.1641 33.4652 38.1641 27.669V10.4951C38.1641 4.69883 33.4652 0 27.669 0H10.4951ZM25.5384 16.5063C25.6068 16.5455 25.6635 16.6017 25.7025 16.6693C25.7416 16.7369 25.7617 16.8135 25.7607 16.8912C25.7598 16.9689 25.7378 17.0449 25.6971 17.1116L18.6805 29.3716C18.6266 29.4549 18.546 29.5181 18.4513 29.5513C18.3566 29.5844 18.2533 29.5855 18.1579 29.5544C18.0625 29.5233 17.9805 29.4619 17.9248 29.3798C17.8691 29.2977 17.8431 29.1996 17.8507 29.1013L18.6302 21.7183H12.8511C12.7714 21.7183 12.6932 21.6974 12.6245 21.6579C12.5558 21.6183 12.4991 21.5615 12.4602 21.4933C12.4214 21.4251 12.4018 21.348 12.4034 21.2699C12.4051 21.1917 12.4279 21.1155 12.4697 21.0489L19.6042 8.78756C19.6594 8.70441 19.7415 8.64189 19.8373 8.61006C19.933 8.57823 20.037 8.57895 20.1323 8.6121C20.2276 8.64525 20.3088 8.7089 20.3627 8.7928C20.4167 8.87671 20.4403 8.97598 20.4297 9.07465L19.4461 16.4466H25.3129C25.3921 16.4466 25.4699 16.4672 25.5384 16.5063Z" fill="#FF0000"/>
</svg>
